<svg xmlns="http://www.w3.org/2000/svg" viewBox="0 0 300.29 385.62"><path d="M13.05 355.4h2.17a27 27 0 013 .23 20.61 20.61 0 013.19.67 10.29 10.29 0 012.91 1.39 7.24 7.24 0 012.12 2.31 7 7 0 01.81 3.51 8.59 8.59 0 01-1.44 5.22 9.38 9.38 0 01-3.53 3 13.86 13.86 0 01-4.49 1.3 36.68 36.68 0 01-4.26.29h-1.47a17.68 17.68 0 01-2.62-.31 19 19 0 01-3.17-.91 10.21 10.21 0 01-3-1.78 9 9 0 01-2.28-3 10 10 0 01-.91-4.49h6.89a5.61 5.61 0 00.17 1.22 3.26 3.26 0 00.79 1.38 5 5 0 001.87 1.16 10.18 10.18 0 003.39.53 20.14 20.14 0 004.09-.22 5.66 5.66 0 002.12-.77 1.92 1.92 0 00.82-1 3.78 3.78 0 00.14-1 3.3 3.3 0 00-.17-1 1.84 1.84 0 00-.88-.93 7 7 0 00-2.2-.71 26.75 26.75 0 00-4.15-.34 18.38 18.38 0 01-4.07-.56 12.56 12.56 0 01-3.67-1.55 8.75 8.75 0 01-2.65-2.63 6.73 6.73 0 01-1-3.73 8.21 8.21 0 011-4.15 8.7 8.7 0 012.68-2.91 12.22 12.22 0 013.81-1.69 17.55 17.55 0 014.52-.57 26.06 26.06 0 013.33.29 12.77 12.77 0 014.1 1.29 9.7 9.7 0 013.44 3 8.72 8.72 0 011.39 5.36h-6.89a3.58 3.58 0 00-1.22-2.85c-.81-.7-2.25-1-4.32-1a7.05 7.05 0 00-3.73.87 2.71 2.71 0 00-1.41 2.4 2.13 2.13 0 001.36 2.09 8.34 8.34 0 003.42.59zM41.06 372.74h-4.63l-6.95-28.63h6.95l4.63 21.4 4.63-21.4h6.5l-6.5 28.63zm16.21 0h-4.63l-6.5-28.63h6.5l4.63 21.4 4.63-21.4h6.95l-6.95 28.63zM71.9 337.72v-1.86a1.29 1.29 0 01.34-.9 1.61 1.61 0 011-.31h4.12a1.61 1.61 0 011 .31 1.24 1.24 0 01.34.9V339.59a1.24 1.24 0 01-.34.9 1.61 1.61 0 01-1 .31h-4.12a1.61 1.61 0 01-1-.31 1.29 1.29 0 01-.34-.9c.01-.41 0-1.04 0-1.87zm6.89 6.39v28.63H71.9v-28.63zM94.88 355.4h2.18a26.8 26.8 0 013 .23 20.37 20.37 0 013.19.67 10.16 10.16 0 012.91 1.39 7.12 7.12 0 012.12 2.31 7 7 0 01.82 3.51 8.59 8.59 0 01-1.44 5.22 9.46 9.46 0 01-3.53 3 13.94 13.94 0 01-4.49 1.3 36.7 36.7 0 01-4.27.29h-1.46a17.8 17.8 0 01-2.63-.31 18.92 18.92 0 01-3.16-.91 10.09 10.09 0 01-3-1.78 8.92 8.92 0 01-2.29-3 10.12 10.12 0 01-.9-4.49h6.89a5.06 5.06 0 00.17 1.22 3.06 3.06 0 00.79 1.38 4.83 4.83 0 001.86 1.16 10.27 10.27 0 003.39.53 20.09 20.09 0 004.09-.22 5.66 5.66 0 002.12-.77 1.87 1.87 0 00.82-1 3.78 3.78 0 00.14-1 3.3 3.3 0 00-.17-1 1.81 1.81 0 00-.87-.93 7.12 7.12 0 00-2.21-.71 26.64 26.64 0 00-4.15-.34 18.29 18.29 0 01-4.06-.56 12.45 12.45 0 01-3.67-1.55 8.67 8.67 0 01-2.66-2.63 6.73 6.73 0 01-1-3.73 8.21 8.21 0 011-4.15 8.7 8.7 0 012.68-2.91 12.17 12.17 0 013.82-1.69 17.47 17.47 0 014.51-.57 26.33 26.33 0 013.34.29 12.8 12.8 0 014.09 1.29 9.65 9.65 0 013.45 3 8.65 8.65 0 011.38 5.36h-6.89a3.58 3.58 0 00-1.22-2.85c-.8-.7-2.25-1-4.32-1a7 7 0 00-3.72.87 2.71 2.71 0 00-1.41 2.4 2.14 2.14 0 001.35 2.09 8.34 8.34 0 003.41.59zM124.36 355.4h2.18a26.8 26.8 0 013 .23 20.37 20.37 0 013.19.67 10.16 10.16 0 012.91 1.39 7.12 7.12 0 012.12 2.31 6.86 6.86 0 01.82 3.51 8.59 8.59 0 01-1.44 5.22 9.46 9.46 0 01-3.53 3 13.94 13.94 0 01-4.49 1.3 36.7 36.7 0 01-4.27.29h-1.46a17.8 17.8 0 01-2.63-.31 18.92 18.92 0 01-3.16-.91 10.09 10.09 0 01-3.05-1.78 8.92 8.92 0 01-2.29-3 10.12 10.12 0 01-.9-4.49h6.89a5.06 5.06 0 00.17 1.22 3.06 3.06 0 00.79 1.38 4.83 4.83 0 001.86 1.16 10.27 10.27 0 003.39.53 20.09 20.09 0 004.09-.22 5.66 5.66 0 002.12-.77 1.92 1.92 0 00.82-1 3.78 3.78 0 00.14-1 3.3 3.3 0 00-.17-1 1.81 1.81 0 00-.87-.93 7.12 7.12 0 00-2.21-.71 26.75 26.75 0 00-4.15-.34 18.29 18.29 0 01-4.06-.56 12.45 12.45 0 01-3.67-1.55 8.67 8.67 0 01-2.66-2.63 6.73 6.73 0 01-1-3.73 8.21 8.21 0 011-4.15 8.7 8.7 0 012.68-2.91 12.17 12.17 0 013.77-1.72 17.47 17.47 0 014.51-.57 26.33 26.33 0 013.34.29 12.8 12.8 0 014.09 1.29 9.65 9.65 0 013.45 3 8.65 8.65 0 011.38 5.36h-6.89a3.58 3.58 0 00-1.22-2.85c-.8-.7-2.24-1-4.32-1a7 7 0 00-3.72.87 2.71 2.71 0 00-1.41 2.4 2.14 2.14 0 001.35 2.09 8.34 8.34 0 003.51.62zM166.44 343.37a15.93 15.93 0 016 1 10.27 10.27 0 014.09 3 12.18 12.18 0 012.35 4.75 25 25 0 01.73 6.35v12.88a21.78 21.78 0 01-.2 3.13 22.09 22.09 0 01-.53 2.69 10.13 10.13 0 01-1.67 3.41 10.83 10.83 0 01-3 2.69 15.17 15.17 0 01-4.3 1.75 23.74 23.74 0 01-5.7.62l-7.51-.06v-6.38h6.1a17.06 17.06 0 005.87-.79 7.32 7.32 0 003-1.89 4.3 4.3 0 001.07-2.23 16.21 16.21 0 00.14-1.76v-3.72l1.24-1.64a9.11 9.11 0 01-2.42 3.61 10.51 10.51 0 01-2.88 1.81 12 12 0 01-3.39.74 12.9 12.9 0 01-6.22-1.59 11.57 11.57 0 01-2.28-1.72 10.66 10.66 0 01-2-2.62 15.63 15.63 0 01-1.41-3.79 21.74 21.74 0 01-.54-5.14 20.7 20.7 0 01.57-5.14 14.77 14.77 0 011.49-3.81 10.59 10.59 0 012.15-2.68 13.15 13.15 0 012.46-1.75 14.85 14.85 0 016.79-1.72zm6.49 15.08a21.78 21.78 0 00-.2-3 7.89 7.89 0 00-.84-2.71 4.94 4.94 0 00-2-1.95 7.12 7.12 0 00-3.5-.73 6 6 0 00-3.36.84 5.88 5.88 0 00-2 2.12 8.59 8.59 0 00-.91 2.74 16.8 16.8 0 000 5.42 8.51 8.51 0 00.91 2.74 5.73 5.73 0 002 2.12 7.07 7.07 0 006.72 0 6 6 0 002-2.12 8.32 8.32 0 00.94-2.74 17.93 17.93 0 00.24-2.73zM183.1 358.45a20.73 20.73 0 01.56-5.14 15.14 15.14 0 011.5-3.81 10.56 10.56 0 012.14-2.68 13.15 13.15 0 012.46-1.75 14 14 0 0113.39 0 13.42 13.42 0 012.45 1.75 10.59 10.59 0 012.15 2.68 15.53 15.53 0 011.52 3.81 22.32 22.32 0 010 10.28 15.21 15.21 0 01-1.52 3.79 10.44 10.44 0 01-2.15 2.62 14.22 14.22 0 01-2.45 1.72 14.89 14.89 0 01-13.39 0 13.91 13.91 0 01-2.47-1.72 10.41 10.41 0 01-2.14-2.62 14.83 14.83 0 01-1.5-3.79 20.68 20.68 0 01-.55-5.14zm13.38-8.41a6 6 0 00-3.36.84 5.88 5.88 0 00-1.95 2.12 8.58 8.58 0 00-.9 2.74 16.08 16.08 0 000 5.42 8.5 8.5 0 00.9 2.74 5.73 5.73 0 001.95 2.12 7.07 7.07 0 006.72 0 5.73 5.73 0 001.95-2.12 8.5 8.5 0 00.9-2.74 16.08 16.08 0 000-5.42 8.58 8.58 0 00-.9-2.74 5.88 5.88 0 00-1.95-2.12 6 6 0 00-3.36-.84zM213.03 358.45a21.22 21.22 0 01.56-5.14 15.14 15.14 0 011.5-3.81 10.59 10.59 0 012.15-2.68 13.42 13.42 0 012.45-1.75 14 14 0 0113.39 0 13.15 13.15 0 012.46 1.75 10.79 10.79 0 012.14 2.68 15.93 15.93 0 011.53 3.81 22.68 22.68 0 010 10.28 15.6 15.6 0 01-1.53 3.79 10.63 10.63 0 01-2.14 2.62 13.91 13.91 0 01-2.46 1.72 14.89 14.89 0 01-13.39 0 14.22 14.22 0 01-2.4-1.72 10.44 10.44 0 01-2.15-2.62 14.83 14.83 0 01-1.5-3.79 21.16 21.16 0 01-.61-5.14zm13.38-8.41a6 6 0 00-3.36.84 5.94 5.94 0 00-1.94 2.12 8.35 8.35 0 00-.91 2.74 16.8 16.8 0 000 5.42 8.28 8.28 0 00.91 2.74 5.78 5.78 0 001.94 2.12 7.09 7.09 0 006.73 0 5.78 5.78 0 001.94-2.12 8.28 8.28 0 00.91-2.74 16.8 16.8 0 000-5.42 8.35 8.35 0 00-.91-2.74 5.94 5.94 0 00-1.94-2.12 6 6 0 00-3.37-.84zM262.95 348.12v-13.5h6.73v23.78a20.7 20.7 0 01-.57 5.14 15.07 15.07 0 01-1.5 3.81 10.57 10.57 0 01-2.11 2.65 13 13 0 01-2.43 1.72 14.62 14.62 0 01-6.61 1.59 14.87 14.87 0 01-6.72-1.59 13.91 13.91 0 01-2.45-1.72 10.41 10.41 0 01-2.14-2.62 14.83 14.83 0 01-1.5-3.79 20.68 20.68 0 01-.56-5.14 21.84 21.84 0 01.53-5.14 16 16 0 011.41-3.81 11.37 11.37 0 012-2.68 11.07 11.07 0 012.29-1.75 12.93 12.93 0 016.21-1.7 12.05 12.05 0 013.39.85 11.74 11.74 0 012.88 1.89 9.33 9.33 0 012.43 3.65zm-6.49 18.78a5.65 5.65 0 005.34-3 8.08 8.08 0 00.93-2.74 16.8 16.8 0 000-5.42 8.16 8.16 0 00-.93-2.74 6.16 6.16 0 00-2-2.12 7.14 7.14 0 00-6.72 0 5.88 5.88 0 00-1.95 2.12 8.58 8.58 0 00-.9 2.74 16.08 16.08 0 000 5.42 8.5 8.5 0 00.9 2.74 5.73 5.73 0 001.95 2.12 6 6 0 003.38.88zM285.83 355.4H288a27.16 27.16 0 013 .23 20.86 20.86 0 013.19.67 10.29 10.29 0 012.91 1.39 7.09 7.09 0 012.11 2.31 6.86 6.86 0 01.82 3.51 8.59 8.59 0 01-1.44 5.22 9.38 9.38 0 01-3.53 3 13.86 13.86 0 01-4.49 1.3 36.68 36.68 0 01-4.26.29h-1.47a18 18 0 01-2.63-.31 19.2 19.2 0 01-3.16-.91 10.09 10.09 0 01-3.05-1.78 9 9 0 01-2.28-3 10 10 0 01-.91-4.49h6.89a5.61 5.61 0 00.17 1.22 3.16 3.16 0 00.79 1.38 4.88 4.88 0 001.87 1.16 10.16 10.16 0 003.38.53 20.2 20.2 0 004.1-.22 5.73 5.73 0 002.12-.77 1.85 1.85 0 00.81-1 3.41 3.41 0 00.15-1 3.3 3.3 0 00-.17-1 1.88 1.88 0 00-.88-.93 7 7 0 00-2.2-.71 26.75 26.75 0 00-4.15-.34 18.38 18.38 0 01-4.07-.56 12.56 12.56 0 01-3.67-1.55 8.64 8.64 0 01-2.65-2.63 6.73 6.73 0 01-1-3.73 8.21 8.21 0 011-4.15 8.6 8.6 0 012.68-2.91 12.22 12.22 0 013.81-1.69 17.55 17.55 0 014.52-.57 26.06 26.06 0 013.33.29 12.85 12.85 0 014.1 1.29 9.7 9.7 0 013.44 3 8.65 8.65 0 011.38 5.36h-6.89a3.57 3.57 0 00-1.21-2.85c-.81-.7-2.25-1-4.32-1a7.05 7.05 0 00-3.73.87 2.71 2.71 0 00-1.41 2.4 2.13 2.13 0 001.36 2.09 8.34 8.34 0 003.47.59z" fill="#696963"/><path d="M140.16 68.82h31.07c5-17.23 7.71-38.66 7.16-66.26A152.23 152.23 0 00152.87 0c1.51 31.06-3.72 52.67-12.71 68.82zM43.17 79.5c22.06-13.75 39.89-25 40.3-64.07A153.09 153.09 0 002.22 116.29c11.12-18.2 26.57-27.84 40.95-36.79zM175.06 96.55v30.79h24.62c16.57-21.78 27.86-52.53 26.73-107A151.74 151.74 0 00192.1 5.79c.44 41.17-6.35 69.54-17.04 90.76zM210.46 185.08c3.11-2.49 6.2-5 9.24-7.51h-44.64v41.22c10.58-13.75 23.07-23.81 35.4-33.71zM232.79 127.34v38.46c20.83-20.71 36.65-49.1 35.5-109.9a153.63 153.63 0 00-28.19-26.62c-.23 46.61-9.84 76.42-23.75 98.1zM70.2 127.34h55.32v-39.2c-10.4 10.45-22.65 18.12-34.77 25.67-6.91 4.3-13.86 8.63-20.55 13.53z" fill="#f26f71"/><path d="M83.54 102.24c31.64-19.72 59-37 55.72-101.86a151.7 151.7 0 00-42.2 9.19c1.38 51.49-23 66.76-46.68 81.5-25 15.57-48.61 30.28-50.09 88.33a151.28 151.28 0 009.35 31.81c8.31-67.9 42.91-89.67 73.9-108.97zM254.58 205.24c23.43-14.28 45.58-27.77 42.88-90.46h.7a151.11 151.11 0 00-16.47-39.73c-3.22 72.73-33.36 97.16-62.68 120.69-27.9 22.38-54.22 43.69-57.7 108.82a152 152 0 0043.43-9.66c.83-59.79 26.86-75.66 49.84-89.66z" fill="#f26f71"/><path d="M67.79 177.57v-48.44c-24 18.29-44.26 44.81-46.25 104.79a153.49 153.49 0 0025.66 30.72c3.09-41.73 15-67.79 30.36-87.07zM261.67 216.9c-21.88 13.33-40.86 25-43.07 71.91a153 153 0 0081.69-108.54c-9.83 19.04-24.74 28.15-38.62 36.63zM125.52 177.57H95.74c-19 19.94-33.52 46.93-35.45 97.84a152.3 152.3 0 0034.49 19c2-47.3 14.35-75.95 30.74-96.77zM125.52 236.09v-13.74c-9.8 18.11-16.37 42-17.35 76.65a152.86 152.86 0 0039.45 5.9c1.5-30.15 7.64-51.95 16.41-68.82z" fill="#f26f71"/></svg>